<mxfile host="sandbox.cryptpad.info" type="embed" version="21.8.2"><diagram id="bWoO5ACGZIaXrIiKNTKd" name="Page-1"><mxGraphModel arrows="1" connect="1" dx="1481" dy="2068" fold="1" grid="1" gridSize="10" guides="1" math="0" page="1" pageHeight="1169" pageScale="1" pageWidth="827" shadow="0" tooltips="1"><root><mxCell id="0"/><mxCell id="1" parent="0"/><mxCell id="2" parent="1" style="rounded=1;arcSize=10;whiteSpace=wrap;html=1;align=center;" value="Song" vertex="1"><mxGeometry as="geometry" height="40" width="120" x="640" y="120"/></mxCell><mxCell id="3" parent="1" style="ellipse;whiteSpace=wrap;html=1;align=center;fontStyle=4;" value="SongID" vertex="1"><mxGeometry as="geometry" height="40" width="120" x="800" y="40"/></mxCell><mxCell id="5" parent="1" style="ellipse;whiteSpace=wrap;html=1;align=center;" value="CoverImage" vertex="1"><mxGeometry as="geometry" height="40" width="120" x="560" y="-120"/></mxCell><mxCell id="6" parent="1" style="ellipse;whiteSpace=wrap;html=1;align=center;" value="Title" vertex="1"><mxGeometry as="geometry" height="40" width="120" x="800" y="-40"/></mxCell><mxCell id="8" parent="1" style="ellipse;whiteSpace=wrap;html=1;align=center;" value="ReleaseDate" vertex="1"><mxGeometry as="geometry" height="40" width="120" x="720" y="-120"/></mxCell><mxCell id="10" parent="1" style="ellipse;whiteSpace=wrap;html=1;align=center;" value="Length" vertex="1"><mxGeometry as="geometry" height="40" width="120" x="480" y="40"/></mxCell><mxCell id="12" parent="1" style="ellipse;whiteSpace=wrap;html=1;align=center;" value="Rating" vertex="1"><mxGeometry as="geometry" height="40" width="120" x="480" y="-40"/></mxCell><mxCell id="13" parent="1" style="ellipse;whiteSpace=wrap;html=1;align=center;" value="Genre" vertex="1"><mxGeometry as="geometry" height="40" width="120" x="640" y="-40"/></mxCell><mxCell id="24" parent="1" style="rounded=1;arcSize=10;whiteSpace=wrap;html=1;align=center;" value="Artist" vertex="1"><mxGeometry as="geometry" height="40" width="120" x="160" y="520"/></mxCell><mxCell id="26" parent="1" style="ellipse;whiteSpace=wrap;html=1;align=center;fontStyle=4;" value="ArtistID" vertex="1"><mxGeometry as="geometry" height="40" width="120" x="280" y="600"/></mxCell><mxCell id="27" parent="1" style="ellipse;whiteSpace=wrap;html=1;align=center;" value="Name" vertex="1"><mxGeometry as="geometry" height="40" width="120" x="40" y="600"/></mxCell><mxCell id="28" parent="1" style="ellipse;whiteSpace=wrap;html=1;align=center;" value="ActiveSince" vertex="1"><mxGeometry as="geometry" height="40" width="120" x="240" y="680"/></mxCell><mxCell id="29" parent="1" style="ellipse;whiteSpace=wrap;html=1;align=center;" value="ArtistImage" vertex="1"><mxGeometry as="geometry" height="40" width="120" y="520"/></mxCell><mxCell id="30" parent="1" style="ellipse;whiteSpace=wrap;html=1;align=center;" value="Follower" vertex="1"><mxGeometry as="geometry" height="40" width="120" x="80" y="680"/></mxCell><mxCell id="34" parent="1" style="rounded=1;arcSize=10;whiteSpace=wrap;html=1;align=center;" value="User" vertex="1"><mxGeometry as="geometry" height="40" width="120" x="640" y="520"/></mxCell><mxCell id="35" parent="1" style="ellipse;whiteSpace=wrap;html=1;align=center;fontStyle=4;" value="UserID" vertex="1"><mxGeometry as="geometry" height="40" width="120" x="520" y="600"/></mxCell><mxCell id="36" parent="1" style="ellipse;whiteSpace=wrap;html=1;align=center;" value="Username" vertex="1"><mxGeometry as="geometry" height="40" width="120" x="560" y="680"/></mxCell><mxCell id="37" parent="1" style="ellipse;whiteSpace=wrap;html=1;align=center;" value="Password" vertex="1"><mxGeometry as="geometry" height="40" width="120" x="800" y="520"/></mxCell><mxCell id="38" parent="1" style="ellipse;whiteSpace=wrap;html=1;align=center;" value="ProfileImage" vertex="1"><mxGeometry as="geometry" height="40" width="120" x="760" y="600"/></mxCell><mxCell id="39" parent="1" style="ellipse;whiteSpace=wrap;html=1;align=center;" value="Email" vertex="1"><mxGeometry as="geometry" height="40" width="120" x="720" y="680"/></mxCell><mxCell id="40" parent="1" style="rounded=1;arcSize=10;whiteSpace=wrap;html=1;align=center;" value="Album" vertex="1"><mxGeometry as="geometry" height="40" width="120" x="160" y="120"/></mxCell><mxCell id="42" parent="1" style="ellipse;whiteSpace=wrap;html=1;align=center;fontStyle=4;" value="AlbumID" vertex="1"><mxGeometry as="geometry" height="40" width="120" x="240" y="40"/></mxCell><mxCell id="43" parent="1" style="ellipse;whiteSpace=wrap;html=1;align=center;" value="AlbumName" vertex="1"><mxGeometry as="geometry" height="40" width="120" x="40" y="200"/></mxCell><mxCell id="45" parent="1" style="ellipse;whiteSpace=wrap;html=1;align=center;" value="AlbumImage" vertex="1"><mxGeometry as="geometry" height="40" width="120" y="120"/></mxCell><mxCell id="46" parent="1" style="ellipse;whiteSpace=wrap;html=1;align=center;" value="Length" vertex="1"><mxGeometry as="geometry" height="40" width="120" x="80" y="40"/></mxCell><mxCell id="47" parent="1" style="shape=rhombus;perimeter=rhombusPerimeter;whiteSpace=wrap;html=1;align=center;" value="has" vertex="1"><mxGeometry as="geometry" height="60" width="120" x="400" y="110"/></mxCell><mxCell edge="1" id="48" parent="1" source="40" style="endArrow=none;html=1;rounded=0;entryX=0;entryY=0.5;entryDx=0;entryDy=0;exitX=1;exitY=0.5;exitDx=0;exitDy=0;" target="47" value=""><mxGeometry as="geometry" height="50" relative="1" width="50"><mxPoint as="sourcePoint" x="60" y="380"/><mxPoint as="targetPoint" x="110" y="330"/></mxGeometry></mxCell><mxCell connectable="0" id="51" parent="48" style="edgeLabel;html=1;align=center;verticalAlign=middle;resizable=0;points=[];" value="m" vertex="1"><mxGeometry as="geometry" relative="1" x="-0.04" y="-3"><mxPoint as="offset"/></mxGeometry></mxCell><mxCell edge="1" id="49" parent="1" source="47" style="endArrow=none;html=1;rounded=0;entryX=0;entryY=0.5;entryDx=0;entryDy=0;exitX=1;exitY=0.5;exitDx=0;exitDy=0;" target="2" value=""><mxGeometry as="geometry" height="50" relative="1" width="50"><mxPoint as="sourcePoint" x="350" y="280"/><mxPoint as="targetPoint" x="400" y="230"/></mxGeometry></mxCell><mxCell connectable="0" id="50" parent="49" style="edgeLabel;html=1;align=center;verticalAlign=middle;resizable=0;points=[];" value="n" vertex="1"><mxGeometry as="geometry" relative="1" x="0.1283" y="-1"><mxPoint as="offset"/></mxGeometry></mxCell><mxCell id="52" parent="1" style="shape=rhombus;perimeter=rhombusPerimeter;whiteSpace=wrap;html=1;align=center;rotation=0;" value="is in" vertex="1"><mxGeometry as="geometry" height="60" width="120" x="160" y="320"/></mxCell><mxCell edge="1" id="53" parent="1" source="52" style="endArrow=none;html=1;rounded=0;exitX=0.5;exitY=1;exitDx=0;exitDy=0;entryX=0.5;entryY=0;entryDx=0;entryDy=0;" target="24" value=""><mxGeometry as="geometry" relative="1"><mxPoint as="sourcePoint" x="230" y="340"/><mxPoint as="targetPoint" x="390" y="340"/></mxGeometry></mxCell><mxCell connectable="0" id="54" parent="53" style="edgeLabel;html=1;align=center;verticalAlign=middle;resizable=0;points=[];" value="n" vertex="1"><mxGeometry as="geometry" relative="1" x="-0.0345"><mxPoint as="offset"/></mxGeometry></mxCell><mxCell edge="1" id="55" parent="1" source="40" style="endArrow=none;html=1;rounded=0;entryX=0.5;entryY=0;entryDx=0;entryDy=0;exitX=0.5;exitY=1;exitDx=0;exitDy=0;" target="52" value=""><mxGeometry as="geometry" relative="1"><mxPoint as="sourcePoint" x="-130" y="460"/><mxPoint as="targetPoint" x="30" y="460"/></mxGeometry></mxCell><mxCell connectable="0" id="56" parent="55" style="edgeLabel;html=1;align=center;verticalAlign=middle;resizable=0;points=[];" value="m" vertex="1"><mxGeometry as="geometry" relative="1" x="-0.0164" y="2"><mxPoint as="offset"/></mxGeometry></mxCell><mxCell id="58" parent="1" style="shape=rhombus;perimeter=rhombusPerimeter;whiteSpace=wrap;html=1;align=center;" value="is" vertex="1"><mxGeometry as="geometry" height="60" width="120" x="400" y="510"/></mxCell><mxCell edge="1" id="59" parent="1" source="34" style="endArrow=none;html=1;rounded=0;entryX=1;entryY=0.5;entryDx=0;entryDy=0;exitX=0;exitY=0.5;exitDx=0;exitDy=0;" target="58" value=""><mxGeometry as="geometry" relative="1"><mxPoint as="sourcePoint" x="290" y="660"/><mxPoint as="targetPoint" x="450" y="660"/></mxGeometry></mxCell><mxCell connectable="0" id="61" parent="59" style="edgeLabel;html=1;align=center;verticalAlign=middle;resizable=0;points=[];" value="1" vertex="1"><mxGeometry as="geometry" relative="1" x="-0.0804" y="-2"><mxPoint as="offset" x="-1"/></mxGeometry></mxCell><mxCell edge="1" id="60" parent="1" source="24" style="endArrow=none;html=1;rounded=0;exitX=1;exitY=0.5;exitDx=0;exitDy=0;entryX=0;entryY=0.5;entryDx=0;entryDy=0;" target="58" value=""><mxGeometry as="geometry" relative="1"><mxPoint as="sourcePoint" x="360" y="610"/><mxPoint as="targetPoint" x="520" y="610"/></mxGeometry></mxCell><mxCell connectable="0" id="62" parent="60" style="edgeLabel;html=1;align=center;verticalAlign=middle;resizable=0;points=[];" value="1" vertex="1"><mxGeometry as="geometry" relative="1" x="0.0619" y="-2"><mxPoint as="offset"/></mxGeometry></mxCell><mxCell id="64" parent="1" style="rounded=1;arcSize=10;whiteSpace=wrap;html=1;align=center;" value="Playlist" vertex="1"><mxGeometry as="geometry" height="40" width="120" x="640" y="320"/></mxCell><mxCell id="66" parent="1" style="ellipse;whiteSpace=wrap;html=1;align=center;fontStyle=4;" value="PlaylistID" vertex="1"><mxGeometry as="geometry" height="40" width="120" x="800" y="280"/></mxCell><mxCell id="67" parent="1" style="ellipse;whiteSpace=wrap;html=1;align=center;" value="PlaylistName" vertex="1"><mxGeometry as="geometry" height="40" width="120" x="800" y="360"/></mxCell><mxCell id="68" parent="1" style="shape=rhombus;perimeter=rhombusPerimeter;whiteSpace=wrap;html=1;align=center;" value="is in" vertex="1"><mxGeometry as="geometry" height="60" width="120" x="640" y="210"/></mxCell><mxCell edge="1" id="69" parent="1" source="68" style="endArrow=none;html=1;rounded=0;exitX=0.5;exitY=1;exitDx=0;exitDy=0;entryX=0.5;entryY=0;entryDx=0;entryDy=0;" target="64" value=""><mxGeometry as="geometry" relative="1"><mxPoint as="sourcePoint" x="400" y="400"/><mxPoint as="targetPoint" x="560" y="400"/></mxGeometry></mxCell><mxCell connectable="0" id="71" parent="69" style="edgeLabel;html=1;align=center;verticalAlign=middle;resizable=0;points=[];" value="n" vertex="1"><mxGeometry as="geometry" relative="1" x="0.0154" y="-1"><mxPoint as="offset"/></mxGeometry></mxCell><mxCell edge="1" id="70" parent="1" source="68" style="endArrow=none;html=1;rounded=0;exitX=0.5;exitY=0;exitDx=0;exitDy=0;entryX=0.5;entryY=1;entryDx=0;entryDy=0;" target="2" value=""><mxGeometry as="geometry" relative="1"><mxPoint as="sourcePoint" x="440" y="410"/><mxPoint as="targetPoint" x="600" y="410"/></mxGeometry></mxCell><mxCell connectable="0" id="72" parent="70" style="edgeLabel;html=1;align=center;verticalAlign=middle;resizable=0;points=[];" value="m" vertex="1"><mxGeometry as="geometry" relative="1" x="0.2"><mxPoint as="offset"/></mxGeometry></mxCell><mxCell id="73" parent="1" style="shape=rhombus;perimeter=rhombusPerimeter;whiteSpace=wrap;html=1;align=center;" value="releases" vertex="1"><mxGeometry as="geometry" height="60" width="120" x="640" y="410"/></mxCell><mxCell edge="1" id="74" parent="1" source="73" style="endArrow=none;html=1;rounded=0;exitX=0.5;exitY=1;exitDx=0;exitDy=0;entryX=0.5;entryY=0;entryDx=0;entryDy=0;" target="34" value=""><mxGeometry as="geometry" relative="1"><mxPoint as="sourcePoint" x="560" y="540"/><mxPoint as="targetPoint" x="720" y="540"/></mxGeometry></mxCell><mxCell connectable="0" id="75" parent="74" style="edgeLabel;html=1;align=center;verticalAlign=middle;resizable=0;points=[];" value="1" vertex="1"><mxGeometry as="geometry" relative="1" x="0.078" y="-3"><mxPoint as="offset"/></mxGeometry></mxCell><mxCell edge="1" id="76" parent="1" source="64" style="endArrow=none;html=1;rounded=0;entryX=0.5;entryY=0;entryDx=0;entryDy=0;exitX=0.5;exitY=1;exitDx=0;exitDy=0;" target="73" value=""><mxGeometry as="geometry" relative="1"><mxPoint as="sourcePoint" x="280" y="420"/><mxPoint as="targetPoint" x="440" y="420"/></mxGeometry></mxCell><mxCell connectable="0" id="77" parent="76" style="edgeLabel;html=1;align=center;verticalAlign=middle;resizable=0;points=[];" value="n" vertex="1"><mxGeometry as="geometry" relative="1" x="0.0267" y="-2"><mxPoint as="offset"/></mxGeometry></mxCell><mxCell id="78" parent="1" style="ellipse;whiteSpace=wrap;html=1;align=center;" value="PlaylistImage" vertex="1"><mxGeometry as="geometry" height="40" width="120" x="920" y="320"/></mxCell><mxCell edge="1" id="84" parent="1" source="26" style="endArrow=none;html=1;rounded=0;entryX=0.75;entryY=1;entryDx=0;entryDy=0;exitX=0.5;exitY=0;exitDx=0;exitDy=0;" target="24" value=""><mxGeometry as="geometry" relative="1"><mxPoint as="sourcePoint" x="-220" y="630"/><mxPoint as="targetPoint" x="-60" y="630"/></mxGeometry></mxCell><mxCell edge="1" id="85" parent="1" source="28" style="endArrow=none;html=1;rounded=0;entryX=0.5;entryY=1;entryDx=0;entryDy=0;exitX=0.5;exitY=0;exitDx=0;exitDy=0;" target="24" value=""><mxGeometry as="geometry" relative="1"><mxPoint as="sourcePoint" x="100" y="660"/><mxPoint as="targetPoint" x="260" y="660"/></mxGeometry></mxCell><mxCell edge="1" id="86" parent="1" source="30" style="endArrow=none;html=1;rounded=0;entryX=0.5;entryY=1;entryDx=0;entryDy=0;exitX=0.5;exitY=0;exitDx=0;exitDy=0;" target="24" value=""><mxGeometry as="geometry" relative="1"><mxPoint as="sourcePoint" x="-80" y="770"/><mxPoint as="targetPoint" x="80" y="770"/></mxGeometry></mxCell><mxCell edge="1" id="87" parent="1" source="27" style="endArrow=none;html=1;rounded=0;entryX=0.25;entryY=1;entryDx=0;entryDy=0;exitX=0.5;exitY=0;exitDx=0;exitDy=0;" target="24" value=""><mxGeometry as="geometry" relative="1"><mxPoint as="sourcePoint" x="-280" y="720"/><mxPoint as="targetPoint" x="-120" y="720"/></mxGeometry></mxCell><mxCell edge="1" id="88" parent="1" source="29" style="endArrow=none;html=1;rounded=0;entryX=0;entryY=0.5;entryDx=0;entryDy=0;exitX=1;exitY=0.5;exitDx=0;exitDy=0;" target="24" value=""><mxGeometry as="geometry" relative="1"><mxPoint as="sourcePoint" x="-60" y="660"/><mxPoint as="targetPoint" x="100" y="660"/></mxGeometry></mxCell><mxCell edge="1" id="89" parent="1" source="35" style="endArrow=none;html=1;rounded=0;entryX=0.25;entryY=1;entryDx=0;entryDy=0;exitX=0.5;exitY=0;exitDx=0;exitDy=0;" target="34" value=""><mxGeometry as="geometry" relative="1"><mxPoint as="sourcePoint" x="630" y="630"/><mxPoint as="targetPoint" x="790" y="630"/></mxGeometry></mxCell><mxCell edge="1" id="90" parent="1" source="36" style="endArrow=none;html=1;rounded=0;entryX=0.5;entryY=1;entryDx=0;entryDy=0;exitX=0.5;exitY=0;exitDx=0;exitDy=0;" target="34" value=""><mxGeometry as="geometry" relative="1"><mxPoint as="sourcePoint" x="420" y="720"/><mxPoint as="targetPoint" x="580" y="720"/></mxGeometry></mxCell><mxCell edge="1" id="91" parent="1" source="39" style="endArrow=none;html=1;rounded=0;entryX=0.5;entryY=1;entryDx=0;entryDy=0;exitX=0.5;exitY=0;exitDx=0;exitDy=0;" target="34" value=""><mxGeometry as="geometry" relative="1"><mxPoint as="sourcePoint" x="430" y="750"/><mxPoint as="targetPoint" x="590" y="750"/></mxGeometry></mxCell><mxCell edge="1" id="92" parent="1" source="38" style="endArrow=none;html=1;rounded=0;entryX=0.75;entryY=1;entryDx=0;entryDy=0;exitX=0.5;exitY=0;exitDx=0;exitDy=0;" target="34" value=""><mxGeometry as="geometry" relative="1"><mxPoint as="sourcePoint" x="850" y="710"/><mxPoint as="targetPoint" x="1010" y="710"/></mxGeometry></mxCell><mxCell edge="1" id="93" parent="1" source="34" style="endArrow=none;html=1;rounded=0;exitX=1;exitY=0.5;exitDx=0;exitDy=0;entryX=0;entryY=0.5;entryDx=0;entryDy=0;" target="37" value=""><mxGeometry as="geometry" relative="1"><mxPoint as="sourcePoint" x="810" y="440"/><mxPoint as="targetPoint" x="970" y="440"/></mxGeometry></mxCell><mxCell edge="1" id="95" parent="1" source="64" style="endArrow=none;html=1;rounded=0;exitX=1;exitY=1;exitDx=0;exitDy=0;entryX=0;entryY=0;entryDx=0;entryDy=0;" target="67" value=""><mxGeometry as="geometry" relative="1"><mxPoint as="sourcePoint" x="940" y="440"/><mxPoint as="targetPoint" x="1100" y="440"/></mxGeometry></mxCell><mxCell edge="1" id="96" parent="1" source="64" style="endArrow=none;html=1;rounded=0;exitX=1;exitY=0;exitDx=0;exitDy=0;entryX=0;entryY=1;entryDx=0;entryDy=0;" target="66" value=""><mxGeometry as="geometry" relative="1"><mxPoint as="sourcePoint" x="970" y="370"/><mxPoint as="targetPoint" x="1130" y="370"/></mxGeometry></mxCell><mxCell edge="1" id="97" parent="1" source="78" style="endArrow=none;html=1;rounded=0;entryX=1;entryY=0.5;entryDx=0;entryDy=0;exitX=0;exitY=0.5;exitDx=0;exitDy=0;" target="64" value=""><mxGeometry as="geometry" relative="1"><mxPoint as="sourcePoint" x="910" y="350"/><mxPoint as="targetPoint" x="770" y="350"/></mxGeometry></mxCell><mxCell edge="1" id="102" parent="1" source="10" style="endArrow=none;html=1;rounded=0;entryX=0;entryY=0;entryDx=0;entryDy=0;exitX=1;exitY=1;exitDx=0;exitDy=0;" target="2" value=""><mxGeometry as="geometry" relative="1"><mxPoint as="sourcePoint" x="380" y="140"/><mxPoint as="targetPoint" x="540" y="140"/></mxGeometry></mxCell><mxCell edge="1" id="103" parent="1" source="12" style="endArrow=none;html=1;rounded=0;entryX=0.25;entryY=0;entryDx=0;entryDy=0;exitX=1;exitY=1;exitDx=0;exitDy=0;" target="2" value=""><mxGeometry as="geometry" relative="1"><mxPoint as="sourcePoint" x="340" y="140"/><mxPoint as="targetPoint" x="500" y="140"/></mxGeometry></mxCell><mxCell edge="1" id="104" parent="1" source="3" style="endArrow=none;html=1;rounded=0;entryX=1;entryY=0;entryDx=0;entryDy=0;exitX=0;exitY=1;exitDx=0;exitDy=0;" target="2" value=""><mxGeometry as="geometry" relative="1"><mxPoint as="sourcePoint" x="370" y="150"/><mxPoint as="targetPoint" x="530" y="150"/></mxGeometry></mxCell><mxCell edge="1" id="105" parent="1" source="6" style="endArrow=none;html=1;rounded=0;entryX=0.75;entryY=0;entryDx=0;entryDy=0;exitX=0;exitY=1;exitDx=0;exitDy=0;" target="2" value=""><mxGeometry as="geometry" relative="1"><mxPoint as="sourcePoint" x="300" y="140"/><mxPoint as="targetPoint" x="460" y="140"/></mxGeometry></mxCell><mxCell edge="1" id="107" parent="1" source="5" style="endArrow=none;html=1;rounded=0;entryX=0.25;entryY=0;entryDx=0;entryDy=0;exitX=0.5;exitY=1;exitDx=0;exitDy=0;" target="2" value=""><mxGeometry as="geometry" relative="1"><mxPoint as="sourcePoint" x="340" y="130"/><mxPoint as="targetPoint" x="500" y="130"/></mxGeometry></mxCell><mxCell edge="1" id="108" parent="1" source="2" style="endArrow=none;html=1;rounded=0;exitX=0.75;exitY=0;exitDx=0;exitDy=0;entryX=0.5;entryY=1;entryDx=0;entryDy=0;" target="8" value=""><mxGeometry as="geometry" relative="1"><mxPoint as="sourcePoint" x="880" y="220"/><mxPoint as="targetPoint" x="1040" y="220"/></mxGeometry></mxCell><mxCell edge="1" id="109" parent="1" source="43" style="endArrow=none;html=1;rounded=0;entryX=0.25;entryY=1;entryDx=0;entryDy=0;exitX=1;exitY=0;exitDx=0;exitDy=0;" target="40" value=""><mxGeometry as="geometry" relative="1"><mxPoint as="sourcePoint" x="30" y="310"/><mxPoint as="targetPoint" x="190" y="310"/></mxGeometry></mxCell><mxCell edge="1" id="110" parent="1" source="40" style="endArrow=none;html=1;rounded=0;exitX=0;exitY=0.5;exitDx=0;exitDy=0;entryX=1;entryY=0.5;entryDx=0;entryDy=0;" target="45" value=""><mxGeometry as="geometry" relative="1"><mxPoint as="sourcePoint" x="210" y="200"/><mxPoint as="targetPoint" x="370" y="200"/></mxGeometry></mxCell><mxCell edge="1" id="111" parent="1" source="46" style="endArrow=none;html=1;rounded=0;exitX=0.5;exitY=1;exitDx=0;exitDy=0;entryX=0.25;entryY=0;entryDx=0;entryDy=0;" target="40" value=""><mxGeometry as="geometry" relative="1"><mxPoint as="sourcePoint" x="330" y="250"/><mxPoint as="targetPoint" x="490" y="250"/></mxGeometry></mxCell><mxCell edge="1" id="112" parent="1" source="40" style="endArrow=none;html=1;rounded=0;exitX=0.75;exitY=0;exitDx=0;exitDy=0;entryX=0.5;entryY=1;entryDx=0;entryDy=0;" target="42" value=""><mxGeometry as="geometry" relative="1"><mxPoint as="sourcePoint" x="310" y="230"/><mxPoint as="targetPoint" x="470" y="230"/></mxGeometry></mxCell><mxCell edge="1" id="113" parent="1" source="2" style="endArrow=none;html=1;rounded=0;exitX=0.5;exitY=0;exitDx=0;exitDy=0;entryX=0.5;entryY=1;entryDx=0;entryDy=0;" target="13" value=""><mxGeometry as="geometry" relative="1"><mxPoint as="sourcePoint" x="990" y="310"/><mxPoint as="targetPoint" x="1150" y="310"/></mxGeometry></mxCell><mxCell id="114" parent="1" style="shape=rhombus;perimeter=rhombusPerimeter;whiteSpace=wrap;html=1;align=center;rotation=-45;" value="has" vertex="1"><mxGeometry as="geometry" height="60" width="120" x="400" y="300"/></mxCell><mxCell edge="1" id="115" parent="1" source="114" style="endArrow=none;html=1;rounded=0;entryX=0;entryY=1;entryDx=0;entryDy=0;exitX=1;exitY=0.5;exitDx=0;exitDy=0;" target="2" value=""><mxGeometry as="geometry" relative="1"><mxPoint as="sourcePoint" x="360" y="240"/><mxPoint as="targetPoint" x="520" y="240"/></mxGeometry></mxCell><mxCell connectable="0" id="117" parent="115" style="edgeLabel;html=1;align=center;verticalAlign=middle;resizable=0;points=[];" value="n" vertex="1"><mxGeometry as="geometry" relative="1" x="0.0498" y="-1"><mxPoint as="offset" y="-1"/></mxGeometry></mxCell><mxCell edge="1" id="116" parent="1" source="24" style="endArrow=none;html=1;rounded=0;exitX=1;exitY=0;exitDx=0;exitDy=0;entryX=0;entryY=0.5;entryDx=0;entryDy=0;" target="114" value=""><mxGeometry as="geometry" relative="1"><mxPoint as="sourcePoint" x="370" y="460"/><mxPoint as="targetPoint" x="530" y="460"/></mxGeometry></mxCell><mxCell connectable="0" id="118" parent="116" style="edgeLabel;html=1;align=center;verticalAlign=middle;resizable=0;points=[];" value="m" vertex="1"><mxGeometry as="geometry" relative="1" x="0.2131" y="-1"><mxPoint as="offset"/></mxGeometry></mxCell><mxCell id="120" parent="1" style="ellipse;whiteSpace=wrap;html=1;align=center;" value="FilePath" vertex="1"><mxGeometry as="geometry" height="40" width="120" x="800" y="120"/></mxCell><mxCell edge="1" id="122" parent="1" source="2" style="endArrow=none;html=1;rounded=0;exitX=1;exitY=0.5;exitDx=0;exitDy=0;entryX=0;entryY=0.5;entryDx=0;entryDy=0;" target="120" value=""><mxGeometry as="geometry" relative="1"><mxPoint as="sourcePoint" x="820" y="200"/><mxPoint as="targetPoint" x="980" y="200"/></mxGeometry></mxCell></root></mxGraphModel></diagram></mxfile>